<svg width="30" height="24" viewBox="0 0 30 24" fill="none" xmlns="http://www.w3.org/2000/svg">
<path fill-rule="evenodd" clip-rule="evenodd" d="M8.7876 1.28925C8.7876 0.910797 9.09439 0.604004 9.47284 0.604004H28.0801C28.4585 0.604004 28.7653 0.910797 28.7653 1.28925C28.7653 1.66769 28.4585 1.97449 28.0801 1.97449H9.47284C9.09439 1.97449 8.7876 1.66769 8.7876 1.28925Z" fill="#3E4E5D"/>
<path fill-rule="evenodd" clip-rule="evenodd" d="M7.56592 23.3146C7.56592 22.9362 7.87271 22.6294 8.25116 22.6294H29.3018C29.6802 22.6294 29.987 22.9362 29.987 23.3146C29.987 23.6931 29.6802 23.9999 29.3018 23.9999H8.25116C7.87271 23.9999 7.56592 23.6931 7.56592 23.3146Z" fill="#3E4E5D"/>
<path fill-rule="evenodd" clip-rule="evenodd" d="M10.3185 22.727L10.3185 0.799316L11.689 0.799316L11.689 22.727H10.3185Z" fill="#3E4E5D"/>
<path fill-rule="evenodd" clip-rule="evenodd" d="M25.7032 22.727V0.799316L27.0737 0.799316V22.727H25.7032Z" fill="#3E4E5D"/>
<path fill-rule="evenodd" clip-rule="evenodd" d="M15.2678 4.44123V6.35991H17.022V4.44123H15.2678ZM14.8566 3.34485C14.4782 3.34485 14.1714 3.65164 14.1714 4.03009V6.77105C14.1714 7.1495 14.4782 7.4563 14.8566 7.4563H17.4331C17.8116 7.4563 18.1184 7.1495 18.1184 6.77105V4.03009C18.1184 3.65164 17.8116 3.34485 17.4331 3.34485H14.8566Z" fill="#3E4E5D"/>
<path fill-rule="evenodd" clip-rule="evenodd" d="M15.2678 9.23799V11.1567H17.022V9.23799H15.2678ZM14.8566 8.1416C14.4782 8.1416 14.1714 8.44839 14.1714 8.82684V11.5678C14.1714 11.9463 14.4782 12.253 14.8566 12.253H17.4331C17.8116 12.253 18.1184 11.9463 18.1184 11.5678V8.82684C18.1184 8.44839 17.8116 8.1416 17.4331 8.1416H14.8566Z" fill="#3E4E5D"/>
<path fill-rule="evenodd" clip-rule="evenodd" d="M15.2678 14.0347V15.9534H17.022V14.0347H15.2678ZM14.8566 12.9384C14.4782 12.9384 14.1714 13.2451 14.1714 13.6236V16.3646C14.1714 16.743 14.4782 17.0498 14.8566 17.0498H17.4331C17.8116 17.0498 18.1184 16.743 18.1184 16.3646V13.6236C18.1184 13.2451 17.8116 12.9384 17.4331 12.9384H14.8566Z" fill="#3E4E5D"/>
<path fill-rule="evenodd" clip-rule="evenodd" d="M20.2956 4.44123V6.35991H22.0498V4.44123H20.2956ZM19.8845 3.34485C19.506 3.34485 19.1992 3.65164 19.1992 4.03009V6.77105C19.1992 7.1495 19.506 7.4563 19.8845 7.4563H22.461C22.8394 7.4563 23.1462 7.1495 23.1462 6.77105V4.03009C23.1462 3.65164 22.8394 3.34485 22.461 3.34485H19.8845Z" fill="#3E4E5D"/>
<path fill-rule="evenodd" clip-rule="evenodd" d="M20.2956 9.23799V11.1567H22.0498V9.23799H20.2956ZM19.8845 8.1416C19.506 8.1416 19.1992 8.44839 19.1992 8.82684V11.5678C19.1992 11.9463 19.506 12.253 19.8845 12.253H22.461C22.8394 12.253 23.1462 11.9463 23.1462 11.5678V8.82684C23.1462 8.44839 22.8394 8.1416 22.461 8.1416H19.8845Z" fill="#3E4E5D"/>
<path fill-rule="evenodd" clip-rule="evenodd" d="M20.2956 14.0347V15.9534H22.0498V14.0347H20.2956ZM19.8845 12.9384C19.506 12.9384 19.1992 13.2451 19.1992 13.6236V16.3646C19.1992 16.743 19.506 17.0498 19.8845 17.0498H22.461C22.8394 17.0498 23.1462 16.743 23.1462 16.3646V13.6236C23.1462 13.2451 22.8394 12.9384 22.461 12.9384H19.8845Z" fill="#3E4E5D"/>
<path fill-rule="evenodd" clip-rule="evenodd" d="M14.144 19.7909C14.144 19.034 14.7576 18.4204 15.5145 18.4204H22.038C22.7949 18.4204 23.4085 19.034 23.4085 19.7909V23.9023H22.038L22.038 19.7909H15.5145V23.9023H14.144V19.7909Z" fill="#3E4E5D"/>
<path fill-rule="evenodd" clip-rule="evenodd" d="M2.30273 6.77142C2.30273 6.39297 2.60953 6.08618 2.98798 6.08618H10.882C11.2604 6.08618 11.5672 6.39297 11.5672 6.77142C11.5672 7.14987 11.2604 7.45666 10.882 7.45666H2.98798C2.60953 7.45666 2.30273 7.14987 2.30273 6.77142Z" fill="#3E4E5D"/>
<path fill-rule="evenodd" clip-rule="evenodd" d="M0.986816 23.3148C0.986816 22.9363 1.29361 22.6295 1.67206 22.6295H22.7227C23.1011 22.6295 23.4079 22.9363 23.4079 23.3148C23.4079 23.6932 23.1011 24 22.7227 24H1.67206C1.29361 24 0.986816 23.6932 0.986816 23.3148Z" fill="#3E4E5D"/>
<path fill-rule="evenodd" clip-rule="evenodd" d="M3.73938 23.4126L3.73938 6.9668H5.10986L5.10986 23.4126H3.73938Z" fill="#3E4E5D"/>
<path fill-rule="evenodd" clip-rule="evenodd" d="M8.68867 9.92341V11.1568H9.78506V9.92341H8.68867ZM8.27753 8.82703C7.89908 8.82703 7.59229 9.13382 7.59229 9.51227V11.568C7.59229 11.9464 7.89908 12.2532 8.27753 12.2532H10.1962C10.5747 12.2532 10.8814 11.9464 10.8814 11.568V9.51227C10.8814 9.13382 10.5747 8.82703 10.1962 8.82703H8.27753Z" fill="#3E4E5D"/>
<path fill-rule="evenodd" clip-rule="evenodd" d="M8.68867 14.7202V15.9536H9.78506V14.7202H8.68867ZM8.27753 13.6238C7.89908 13.6238 7.59229 13.9306 7.59229 14.309V16.3647C7.59229 16.7432 7.89908 17.05 8.27753 17.05H10.1962C10.5747 17.05 10.8814 16.7432 10.8814 16.3647V14.309C10.8814 13.9306 10.5747 13.6238 10.1962 13.6238H8.27753Z" fill="#3E4E5D"/>
<path fill-rule="evenodd" clip-rule="evenodd" d="M7.56494 20.4762C7.56494 19.7193 8.17853 19.1057 8.93542 19.1057H10.1963C10.9532 19.1057 11.5668 19.7193 11.5668 20.4762V23.9024H10.1963L10.1963 20.4762H8.93542V23.9024H7.56494V20.4762Z" fill="#3E4E5D"/>
</svg>
