<?xml version="1.0" encoding="utf-8"?>
<!-- Generator: Adobe Illustrator 26.0.1, SVG Export Plug-In . SVG Version: 6.00 Build 0)  -->
<svg version="1.1" id="Layer_1" xmlns="http://www.w3.org/2000/svg" xmlns:xlink="http://www.w3.org/1999/xlink" x="0px" y="0px"
	 viewBox="0 0 17.6 17.6" style="enable-background:new 0 0 17.6 17.6;" xml:space="preserve">
<g>
	<g>
		<path d="M8.8,17.3c-0.14,0-0.28-0.06-0.37-0.17C8.18,16.86,2.3,10.27,2.3,6.8c0-3.58,2.92-6.5,6.5-6.5s6.5,2.92,6.5,6.5
			c0,3.46-5.88,10.05-6.13,10.33C9.08,17.24,8.94,17.3,8.8,17.3z M8.8,1.3c-3.03,0-5.5,2.47-5.5,5.5c0,2.38,3.68,7.13,5.5,9.24
			c1.82-2.11,5.5-6.86,5.5-9.24C14.3,3.77,11.83,1.3,8.8,1.3z"/>
	</g>
	<g>
		<path d="M8.8,9.3c-1.38,0-2.5-1.12-2.5-2.5s1.12-2.5,2.5-2.5c1.38,0,2.5,1.12,2.5,2.5S10.18,9.3,8.8,9.3z M8.8,5.3
			c-0.83,0-1.5,0.67-1.5,1.5s0.67,1.5,1.5,1.5s1.5-0.67,1.5-1.5S9.63,5.3,8.8,5.3z"/>
	</g>
</g>
</svg>
